<?xml version="1.0" encoding="UTF-8" standalone="no"?>
<svg
   xmlns:dc="http://purl.org/dc/elements/1.1/"
   xmlns:cc="http://creativecommons.org/ns#"
   xmlns:rdf="http://www.w3.org/1999/02/22-rdf-syntax-ns#"
   xmlns:svg="http://www.w3.org/2000/svg"
   xmlns="http://www.w3.org/2000/svg"
   version="1.1"
   id="svg2"
   viewBox="0 0 708.66142 287.02428"
   height="81.004631mm"
   width="200mm">
  <defs
     id="defs4" />
  <metadata
     id="metadata7">
    <rdf:RDF>
      <cc:Work
         rdf:about="">
        <dc:format>image/svg+xml</dc:format>
        <dc:type
           rdf:resource="http://purl.org/dc/dcmitype/StillImage" />
        <dc:title></dc:title>
      </cc:Work>
    </rdf:RDF>
  </metadata>
  <g
     transform="translate(-5.1169798,-163.34447)"
     id="layer1">
    <path
       id="path4149-3"
       d="m 359.44858,163.34447 c -8.09047,0 -16.15555,1.29045 -24.13491,2.68144 -6.31553,1.10093 -12.58472,2.57323 -18.72313,4.47102 -7.48471,2.31401 -14.93264,4.92586 -21.98937,8.4042 -6.72784,3.31619 -12.94837,7.66112 -19.23948,11.80342 -5.436,3.57925 -10.68493,7.45692 -15.97519,11.26556 -3.91994,2.82214 -7.68921,5.87525 -11.68216,8.58412 -1.67845,1.13863 -3.42493,2.16734 -5.1536,3.22125 -1.5934,0.97146 -3.11497,2.09521 -4.80939,2.85943 -1.42929,0.64463 -2.94225,1.09136 -4.46515,1.43165 -1.35417,0.30257 -2.7387,0.48742 -4.12288,0.5359 -2.0062,0.0703 -4.02171,-0.0877 -6.01222,-0.35791 -2.26045,-0.30694 -4.50477,-0.79251 -6.70066,-1.42972 -8.89737,-2.5818 -17.41063,-6.42749 -26.1103,-9.65787 -8.47834,-3.14821 -16.95181,-6.3112 -25.4238,-9.47794 -4.48005,-1.6746 -8.95849,-3.35492 -13.43654,-5.03429 l 7.12704,48.06837 -4.34585,0.91337 -11.69389,-48.65122 -0.7706,-3.97228 c -4.28295,-1.62963 -8.54893,-3.30536 -12.85761,-4.85828 l 7.20331,48.58471 -4.34584,0.91338 -11.6939,-48.64926 -0.81753,-4.2148 c -4.7984,-1.63358 -9.61803,-3.20108 -14.49269,-4.55904 -6.347652,-1.76829 -12.789732,-3.1631 -19.23947,-4.47102 -7.179364,-1.45587 -14.376804,-2.88499 -21.643187,-3.75519 -7.125177,-0.85327 -14.30055,-1.27165 -21.471074,-1.43166 -5.439678,-0.12139 -10.889466,0.0321 -16.321381,0.35791 -3.043215,0.18254 -6.199772,-0.069 -9.104377,0.89382 -2.077645,0.68863 -3.966589,1.97966 -5.667987,3.39922 -1.4547143,1.21374 -2.8257499,2.62302 -3.7786593,4.29109 -0.9903878,1.73367 -1.4930069,3.74831 -1.8893294,5.72275 -0.4347821,2.16602 -0.6344011,4.40716 -0.5163385,6.61656 0.1166392,2.18279 0.4305347,4.40564 1.202834,6.43859 0.8705551,2.29159 2.2231025,4.40115 3.7786582,6.25865 1.522435,1.81794 3.453302,3.23149 5.327674,4.649 3.05932,2.31363 6.39829,4.19562 9.61876,6.25865 5.929753,3.7986 11.967433,7.41421 17.864528,11.26752 5.784333,3.77963 11.448166,7.75498 17.178033,11.62348 3.891087,2.62705 7.84541,5.15498 11.680202,7.87025 1.629166,1.15356 3.251807,2.32172 4.811336,3.57525 1.415934,1.13812 2.886777,2.2291 4.120928,3.57722 0.960958,1.04969 1.894225,2.17462 2.51715,3.47158 0.632024,1.31588 1.050454,2.77481 1.175452,4.24024 0.112398,1.31756 -0.129184,2.65298 -0.393121,3.94687 -0.734907,3.60269 -2.072584,7.04772 -3.287746,10.50669 -2.251946,6.41019 -4.667157,12.76651 -7.410631,18.96567 -4.43159,10.01362 -9.711165,19.59605 -14.592428,29.38044 -6.605212,13.24 -12.820931,26.70489 -19.884898,39.68569 -4.963174,9.12037 -10.164733,18.11365 -15.791351,26.80657 -2.063516,3.18806 -4.628014,6.0135 -6.577448,9.27845 -1.054533,1.76615 -1.989086,3.62114 -2.747937,5.54476 -0.72928,1.84868 -1.383577,3.75272 -1.717217,5.72081 -0.428375,2.52696 -0.452448,5.12873 -0.344226,7.69227 0.09389,2.22348 0.505642,4.42147 0.858609,6.61656 0.289225,1.7987 0.499963,3.62682 1.030721,5.36483 0.512577,1.67849 1.26313,3.27411 2.061441,4.82698 0.959451,1.86633 2.033713,3.67971 3.264277,5.36484 0.981364,1.34389 2.067696,2.6156 3.262319,3.75715 1.324598,1.26574 2.830531,2.3113 4.294998,3.39727 1.513411,1.12224 2.994772,2.31876 4.639223,3.21929 1.364508,0.74723 2.81356,1.33598 4.293041,1.78763 1.454789,0.44411 2.965963,0.67307 4.46711,0.89381 1.878728,0.27627 3.772592,0.52822 5.669944,0.53785 2.125553,0.0108 4.271836,-0.0953 6.354484,-0.53785 1.596737,-0.33926 3.146561,-0.92879 4.639222,-1.60965 1.737089,-0.79234 3.324234,-1.89584 4.979538,-2.85942 1.723313,-1.00318 3.50318,-1.91309 5.153605,-3.04131 3.17816,-2.17257 6.085243,-4.75123 9.106332,-7.15442 3.048728,-2.42516 6.022193,-4.95156 9.104377,-7.33044 3.892723,-3.00444 7.837661,-5.93691 11.852315,-8.7621 5.526755,-3.88929 11.143615,-7.64265 16.833805,-11.26752 6.21573,-3.95965 12.51527,-7.77987 18.89525,-11.44551 7.46696,-4.29019 15.02144,-8.42142 22.67586,-12.33735 10.4117,-5.3265 20.92103,-10.4691 31.60814,-15.16745 11.86909,-5.21799 23.91395,-10.01281 36.07327,-14.4477 10.88336,-3.96952 21.8111,-7.89021 32.98112,-10.8744 15.74151,-4.20551 31.69963,-7.77352 47.82586,-9.87106 18.49726,-2.40593 37.20375,-3.07456 55.84473,-3.07456 18.64108,0 37.34748,0.66863 55.84475,3.07456 16.12619,2.09754 32.08238,5.66555 47.8239,9.87106 11.17001,2.98419 22.09775,6.90488 32.98111,10.8744 12.15932,4.43489 24.20419,9.22971 36.07328,14.4477 10.68714,4.69835 21.19643,9.84095 31.60813,15.16745 7.65441,3.91592 15.2069,8.04716 22.67391,12.33735 6.37989,3.66564 12.68152,7.48588 18.8972,11.44551 5.69015,3.62486 11.30709,7.37823 16.83381,11.26752 4.0147,2.82519 7.96156,5.75766 11.85427,8.7621 3.08226,2.37888 6.0557,4.90528 9.10438,7.33044 3.02107,2.40319 5.92427,4.98185 9.10242,7.15442 1.65046,1.12822 3.43033,2.03813 5.15361,3.04131 1.65536,0.96358 3.2464,2.06708 4.98345,2.85942 1.49269,0.68086 3.04058,1.27039 4.63726,1.60965 2.08267,0.4425 4.23088,0.54864 6.35644,0.53785 1.89739,-0.01 3.78926,-0.26158 5.66799,-0.53785 1.50115,-0.22074 3.01037,-0.4497 4.46516,-0.89381 1.47951,-0.45165 2.93044,-1.0404 4.29499,-1.78763 1.64449,-0.90053 3.12584,-2.09705 4.63922,-3.21929 1.46451,-1.08597 2.9684,-2.13153 4.29304,-3.39727 1.19468,-1.14155 2.28484,-2.41326 3.26624,-3.75715 1.23056,-1.68513 2.30284,-3.49851 3.26232,-5.36484 0.79833,-1.55287 1.5488,-3.14849 2.06144,-4.82698 0.53072,-1.73801 0.74146,-3.56613 1.03072,-5.36483 0.35295,-2.19509 0.76668,-4.39308 0.86057,-6.61656 0.10822,-2.56354 0.084,-5.16531 -0.34423,-7.69227 -0.33362,-1.96809 -0.98991,-3.87212 -1.71917,-5.72081 -0.7588,-1.92362 -1.69342,-3.77861 -2.74794,-5.54476 -1.94942,-3.26495 -4.51588,-6.09039 -6.5794,-9.27845 -5.62657,-8.69292 -10.82621,-17.6862 -15.7894,-26.80657 -7.06395,-12.9808 -13.27776,-26.44569 -19.88294,-39.68569 -4.88133,-9.78439 -10.16278,-19.36682 -14.59439,-29.38044 -2.74344,-6.19916 -5.15866,-12.55548 -7.41063,-18.96567 -1.21516,-3.45897 -2.5529,-6.904 -3.28774,-10.50669 -0.26397,-1.29389 -0.5055,-2.62931 -0.39312,-3.94687 0.12503,-1.46543 0.54147,-2.92436 1.17349,-4.24024 0.62288,-1.29696 1.55624,-2.42189 2.51716,-3.47158 1.2342,-1.34812 2.70891,-2.4391 4.12483,-3.57722 1.55945,-1.25353 3.18018,-2.42169 4.80938,-3.57525 3.8348,-2.71527 7.78912,-5.2432 11.6802,-7.87025 5.72988,-3.8685 11.39566,-7.84385 17.17999,-11.62348 5.89708,-3.85331 11.93279,-7.46892 17.86257,-11.26752 3.22049,-2.06303 6.56137,-3.94502 9.62072,-6.25865 1.8744,-1.41751 3.80135,-2.83106 5.32376,-4.649 1.5556,-1.8575 2.91002,-3.96706 3.78061,-6.25865 0.77227,-2.03295 1.08615,-4.2558 1.20284,-6.43859 0.11805,-2.2094 -0.0798,-4.45054 -0.51439,-6.61656 -0.39632,-1.97444 -0.90093,-3.98908 -1.89128,-5.72275 -0.95293,-1.66807 -2.32592,-3.07735 -3.78061,-4.29109 -1.70144,-1.41956 -3.59042,-2.71059 -5.66799,-3.39922 -2.90468,-0.96273 -6.05923,-0.71128 -9.10242,-0.89382 -5.43197,-0.32583 -10.87976,-0.4793 -16.31942,-0.35791 -7.17053,0.16001 -14.34781,0.57839 -21.47303,1.43166 -7.26634,0.8702 -14.46577,2.29932 -21.64515,3.75519 -6.44973,1.30791 -12.89191,2.70273 -19.23947,4.47102 -4.87491,1.35803 -9.69264,2.92537 -14.49073,4.55904 l -0.81754,4.2148 -11.69193,48.64926 -4.34585,-0.91338 7.20135,-48.58471 c -4.30815,1.55276 -8.57521,3.22886 -12.8576,4.85828 l -0.7706,3.97228 -11.6939,48.65122 -4.34584,-0.91337 7.12704,-48.06837 c -4.47881,1.67945 -8.95629,3.35961 -13.43654,5.03429 -8.47199,3.16674 -16.94546,6.32973 -25.4238,9.47794 -8.69968,3.23038 -17.21293,7.07607 -26.1103,9.65787 -2.19589,0.63721 -4.44013,1.12278 -6.70067,1.42972 -1.99051,0.27028 -4.00592,0.42819 -6.0122,0.35791 -1.38409,-0.0485 -2.76677,-0.23333 -4.12094,-0.5359 -1.52289,-0.34029 -3.03782,-0.78704 -4.46711,-1.43165 -1.69442,-0.7642 -3.21596,-1.88797 -4.80938,-2.85943 -1.72864,-1.05391 -3.47525,-2.08262 -5.1536,-3.22125 -3.99295,-2.70887 -7.76027,-5.76198 -11.68021,-8.58412 -5.29026,-3.80864 -10.54115,-7.68631 -15.97715,-11.26556 -6.29111,-4.1423 -12.51164,-8.48723 -19.23948,-11.80342 -7.05673,-3.47834 -14.5027,-6.09019 -21.98741,-8.4042 -6.13843,-1.89779 -12.40956,-3.37009 -18.72509,-4.47102 -7.97946,-1.39099 -16.0424,-2.68144 -24.13296,-2.68144 z m 0,28.29496 a 69.22757,31.545124 0 0 1 69.22848,31.54554 69.22757,31.545124 0 0 1 -69.22848,31.54554 69.22757,31.545124 0 0 1 -69.22847,-31.54554 69.22757,31.545124 0 0 1 69.22847,-31.54554 z M 94.283363,211.26029 a 6.2093674,6.2093674 0 0 1 6.209757,6.20975 6.2093674,6.2093674 0 0 1 -6.209757,6.2078 6.2093674,6.2093674 0 0 1 -6.209753,-6.2078 6.2093674,6.2093674 0 0 1 6.209753,-6.20975 z m 530.330447,0 a 6.2093674,6.2093674 0 0 1 6.2078,6.20975 6.2093674,6.2093674 0 0 1 -6.2078,6.2078 6.2093674,6.2093674 0 0 1 -6.20975,-6.2078 6.2093674,6.2093674 0 0 1 6.20975,-6.20975 z m -434.44209,30.75539 a 6.2093674,6.2093674 0 0 1 6.20779,6.20975 6.2093674,6.2093674 0 0 1 -6.20779,6.20975 6.2093674,6.2093674 0 0 1 -6.20976,-6.20975 6.2093674,6.2093674 0 0 1 6.20976,-6.20975 z m 338.55178,0 a 6.2093674,6.2093674 0 0 1 6.20975,6.20975 6.2093674,6.2093674 0 0 1 -6.20975,6.20975 6.2093674,6.2093674 0 0 1 -6.20975,-6.20975 6.2093674,6.2093674 0 0 1 6.20975,-6.20975 z"
       style="fill:#ff0000;fill-opacity:1;fill-rule:evenodd;stroke:none;stroke-width:0.98015738px;stroke-linecap:butt;stroke-linejoin:miter;stroke-opacity:1" />
  </g>
</svg>
